HIERARCHY
ROOT Hips
{
  OFFSET 13.6774 106.653 -34.4427
  CHANNELS 6 Xposition Yposition Zposition Zrotation Xrotation Yrotation
  JOINT ToSpine
  {
    OFFSET -2.69724 7.43032 -0.144315
    CHANNELS 3 Zrotation Xrotation Yrotation
    JOINT Spine
    {
      OFFSET -0.0310711 10.7595 1.96963
      CHANNELS 3 Zrotation Xrotation Yrotation
      JOINT Spine1
      {
        OFFSET 19.9056 3.91189 0.764692
        CHANNELS 3 Zrotation Xrotation Yrotation
        JOINT Neck
        {
          OFFSET 25.9749 7.03908 -0.130764
          CHANNELS 3 Zrotation Xrotation Yrotation
          JOINT Head
          {
            OFFSET 9.52751 0.295786 -0.907742
            CHANNELS 3 Zrotation Xrotation Yrotation
            End Site
            {
              OFFSET 16.4037 0.713936 2.7358
            }
          }
        }
        JOINT LeftShoulder
        {
          OFFSET 17.7449 4.33886 11.7777
          CHANNELS 3 Zrotation Xrotation Yrotation
          JOINT LeftArm
          {
            OFFSET 0.911315 1.27913 9.80584
            CHANNELS 3 Zrotation Xrotation Yrotation
            JOINT LeftForeArm
            {
              OFFSET 28.6126 1.18197 -3.53199
              CHANNELS 3 Zrotation Xrotation Yrotation
              JOINT LeftHand
              {
                OFFSET 27.5088 0.0218783 0.327423
                CHANNELS 3 Zrotation Xrotation Yrotation
                End Site
                {
                  OFFSET 18.6038 -0.000155887 0.382096
                }
              }
            }
          }
        }
        JOINT RightShoulder
        {
          OFFSET 17.1009 2.89543 -12.2328
          CHANNELS 3 Zrotation Xrotation Yrotation
          JOINT RightArm
          {
            OFFSET 1.4228 0.178766 -10.211
            CHANNELS 3 Zrotation Xrotation Yrotation
            JOINT RightForeArm
            {
              OFFSET 28.733 1.87905 2.64907
              CHANNELS 3 Zrotation Xrotation Yrotation
              JOINT RightHand
              {
                OFFSET 27.4588 0.290562 -0.101845
                CHANNELS 3 Zrotation Xrotation Yrotation
                End Site
                {
                  OFFSET 17.8396 -0.255518 -0.000602873
                }
              }
            }
          }
        }
      }
    }
  }
  JOINT LeftUpLeg
  {
    OFFSET -5.61296 -2.22332 -10.2353
    CHANNELS 3 Zrotation Xrotation Yrotation
    JOINT LeftLeg
    {
      OFFSET 2.56703 -44.7417 -7.93097
      CHANNELS 3 Zrotation Xrotation Yrotation
      JOINT LeftFoot
      {
        OFFSET 3.16933 -46.5642 -3.96578
        CHANNELS 3 Zrotation Xrotation Yrotation
        JOINT LeftToeBase
        {
          OFFSET 0.346054 -6.02161 12.8035
          CHANNELS 3 Zrotation Xrotation Yrotation
          End Site
          {
            OFFSET 0.134235 -1.35082 5.13018
          }
        }
      }
    }
  }
  JOINT RightUpLeg
  {
    OFFSET -5.7928 -1.72406 10.6446
    CHANNELS 3 Zrotation Xrotation Yrotation
    JOINT RightLeg
    {
      OFFSET -2.57161 -44.7178 -7.85259
      CHANNELS 3 Zrotation Xrotation Yrotation
      JOINT RightFoot
      {
        OFFSET -3.10148 -46.5936 -4.03391
        CHANNELS 3 Zrotation Xrotation Yrotation
        JOINT RightToeBase
        {
          OFFSET -0.0828122 -6.13587 12.8035
          CHANNELS 3 Zrotation Xrotation Yrotation
          End Site
          {
            OFFSET -0.131328 -1.35082 5.13018
          }
        }
      }
    }
  }
}
MOTION
Frames: 14
Frame Time: 0.03333333333333333
0.0000 93.1000 0.0000 74.8973 4.0382 -1.4138 -71.0061 0.6305 87.9956 106.2913 72.4255 -16.9902 0.5867 25.0114 -2.7805 -124.2212 28.6190 164.0652 168.6215 68.7748 -137.4101 0.7818 -9.4513 -19.5237 -76.2913 32.8573 -141.7995 0.3304 -0.5228 -113.2940 1.2382 0.5379 6.2035 -0.7282 10.6208 19.7992 -67.8430 -48.1858 110.8509 -10.4986 -4.8863 115.8819 -0.9374 -1.4737 -0.1667 -46.0636 17.1803 87.9646 -2.8634 30.3771 -18.5920 -9.5441 1.0211 0.8386 4.2546 -11.9639 6.1793 -39.1951 -20.0413 73.0162 4.0078 59.0639 0.0679 -4.4268 -28.0125 1.6917 1.3398 -22.8362 -22.5868 
0.0000 93.1000 0.0000 75.0470 3.7997 -1.4879 -71.0089 0.5017 87.9998 106.3849 70.9933 -18.3375 0.3881 23.4880 -2.8589 -122.1757 26.8720 165.1560 170.5867 67.9966 -137.6518 0.3564 -10.2790 -20.2156 -75.0371 32.9023 -140.8416 1.9300 -1.3022 -113.1524 1.0821 0.5059 6.1283 -0.5688 9.7264 15.1017 -76.1466 -49.3398 104.9878 -8.2557 -5.0002 118.8971 -0.7768 -1.2678 -0.0545 -46.0681 16.9285 88.0607 -1.8631 30.4100 -19.9098 -8.4066 -1.0046 0.4856 5.3919 -13.2670 10.0791 -37.8528 -19.5279 73.9351 4.9855 61.0837 -0.9661 -4.6680 -28.3275 1.4469 0.7494 -23.3070 -24.2605 
0.0000 93.1000 0.0000 74.9382 2.5500 -1.3756 -71.0063 0.8684 88.0032 104.1677 70.3806 -16.0246 1.1695 22.1140 -2.5417 -120.1216 25.9846 164.1963 173.7734 67.9812 -138.3353 0.6296 -11.2912 -21.6838 -73.0523 33.1341 -141.7444 3.0968 -1.8908 -112.1851 1.0483 0.8113 5.9488 0.0868 8.5601 10.3500 -83.7784 -50.1224 100.9370 -5.4329 -3.8779 121.7833 -0.9689 -1.3907 -0.1786 -46.9973 16.8869 88.2556 -2.3344 29.0951 -22.1482 -7.5880 -1.9449 -0.2045 6.1623 -15.6428 12.3729 -36.6105 -18.9880 75.0701 4.6977 61.1552 -0.7902 -4.9348 -27.7851 1.6710 0.3235 -22.9698 -24.4033 
0.0000 93.1000 0.0000 74.0187 0.7287 -2.2117 -71.0082 0.6850 88.0046 104.2045 69.9412 -16.4247 1.2687 20.9018 -1.5824 -119.2389 25.2785 162.3740 177.9966 67.8566 -142.5175 0.7660 -12.4672 -22.7512 -71.1256 33.4315 -142.9404 3.8085 -1.9182 -111.1975 0.6620 0.6297 6.1532 0.3656 7.3692 8.7145 -89.7985 -49.4299 98.2311 -2.1274 -2.0985 125.7091 -0.7721 -1.0820 0.2320 -47.2097 17.0173 89.5731 -1.4681 28.3821 -23.5611 -6.8677 -3.1422 -0.5007 6.8534 -17.3004 13.4362 -35.0777 -18.0151 76.2399 4.9392 60.2241 -0.5203 -4.8015 -26.5439 1.4451 0.5548 -23.8099 -25.4022 
0.0000 93.1000 0.0000 73.9664 -1.2444 -3.1568 -71.0204 -2.2416 88.0079 102.1662 69.2931 -15.0953 -0.2177 20.6779 -2.3971 -119.3613 24.9954 161.5609 178.7320 67.9645 -144.5898 0.9398 -13.2193 -23.1564 -69.1550 33.9763 -143.8199 5.3454 -2.6281 -110.4257 0.3445 -1.9894 7.4175 0.0474 7.0972 7.2566 -93.8722 -49.3772 98.1994 1.0309 0.5965 127.7199 1.3377 1.5776 2.5835 -47.3008 16.9960 90.7742 -2.0103 28.2912 -22.9490 -6.5621 -3.3727 0.6790 6.6529 -18.1385 14.1728 -33.2102 -16.9352 77.9040 3.6878 59.0923 -1.0076 -5.6991 -25.5635 0.1564 2.5634 -24.1944 -26.0014 
0.0000 93.1000 0.0000 73.0425 -3.6115 -3.9098 -71.0135 0.4705 88.0161 99.0136 68.7785 -13.0139 0.8390 20.0719 -2.0020 -119.4663 24.8507 161.4688 -178.1677 68.1290 -146.1372 0.8420 -13.8237 -23.0122 -67.7120 35.5111 -144.7838 6.9597 -3.3840 -108.6816 -0.2117 0.2993 6.2677 0.2865 6.9041 6.6848 -95.9393 -51.3598 98.7704 2.8467 2.7767 129.8962 -0.2360 -0.7148 0.8183 -47.9432 15.7861 90.3520 -1.5430 29.5788 -20.4567 -5.1203 -3.4680 -0.2469 5.9606 -15.3879 13.8177 -31.8578 -15.7276 81.6211 3.9240 56.7954 -0.7767 -5.5074 -24.6821 1.0172 1.1814 -25.4035 -26.5450 
0.0000 93.1000 0.0000 71.8702 -5.8425 -5.0814 -71.0164 0.2043 88.0157 97.0582 68.0290 -11.5020 0.5993 19.1596 -1.6736 -118.3264 25.1900 161.6852 -179.9193 68.9021 -144.3365 0.3236 -14.3407 -23.5097 -67.1675 35.9660 -145.9122 7.5034 -3.5967 -108.0318 -0.6130 0.1103 6.3239 -0.0819 6.7946 6.7465 -97.9971 -52.2112 98.5260 4.6660 4.5505 130.8155 -0.1366 -0.4109 1.0809 -47.8006 16.3327 90.4237 -2.0762 29.1606 -17.7365 -4.6381 -2.2672 0.1540 5.0757 -13.8961 11.9891 -31.0377 -13.7676 83.1299 2.9966 55.2065 -0.0541 -5.4472 -24.2782 0.7029 1.0848 -24.8725 -26.8225 
0.0000 93.1000 0.0000 72.1004 -9.0814 -4.8329 -71.0094 0.4223 88.0181 94.2009 67.7134 -8.9762 1.4404 18.4588 -1.6710 -117.5121 25.2784 160.3578 -180.0953 69.0831 -143.4262 1.2862 -14.7852 -22.8935 -67.0593 35.8457 -146.6738 8.7587 -3.7316 -107.6132 -0.3554 0.1960 5.9828 0.4720 6.6593 6.9828 -100.6560 -53.1982 96.2193 7.0148 5.4304 130.9681 -0.2137 -0.3484 1.4773 -49.7907 17.0925 91.5249 -1.8759 28.2460 -14.7388 -4.5629 -0.3710 -0.2485 3.6470 -11.0564 9.4008 -30.7335 -12.4527 85.5381 2.8294 52.2074 1.1120 -5.6418 -24.2411 1.2215 2.1091 -25.9894 -27.3585 
0.0000 93.1000 0.0000 70.8034 -12.4859 -5.6924 -70.9895 4.3132 88.0188 93.4372 67.1706 -6.8281 4.0395 17.9609 -0.2061 -116.3272 26.2286 159.4357 -179.9847 69.8874 -143.2240 1.7056 -14.7927 -22.7855 -67.9656 36.0160 -146.9250 9.7180 -3.2592 -107.1146 -0.0475 3.5600 4.0642 1.4214 6.5513 6.1115 -101.4113 -55.5321 95.2328 7.4443 6.4556 130.9608 -2.6867 -3.6028 -0.8120 -51.4164 17.9071 92.5149 -1.5194 28.4169 -11.8699 -2.7574 -0.5805 -2.4127 2.7600 -9.0732 8.5193 -30.9770 -11.5413 87.2384 2.8872 49.4365 2.1181 -4.1726 -23.0055 2.9913 0.2151 -26.1390 -25.9434 
0.0000 93.1000 0.0000 69.8111 -14.1294 -5.7308 -71.0004 0.6539 88.0079 89.9338 66.9276 -4.4979 3.0708 16.8506 -0.4109 -117.2956 27.2598 159.2048 175.8179 70.1928 -140.9960 0.8953 -14.5569 -22.3489 -66.7900 36.5103 -148.5746 10.1501 -3.9856 -107.0524 0.2738 0.5318 5.0697 0.4878 6.1960 5.8236 -103.8748 -54.6546 93.8159 8.5121 7.8320 130.8355 -0.4357 -0.7045 1.9723 -52.4615 17.8291 93.3131 -1.8208 29.1754 -9.5336 -2.4213 -1.7585 -1.0765 2.3383 -8.5947 7.2196 -31.8138 -10.5249 87.4050 1.8028 45.6931 1.0074 -3.3122 -23.2103 1.9252 0.0228 -27.9894 -22.4404 
0.0000 93.1000 0.0000 70.0453 -17.3981 -5.9666 -71.0006 0.5955 88.0075 89.1026 66.1924 -2.7568 3.7870 16.1050 0.3179 -118.2163 26.6797 159.5347 175.9847 69.8737 -141.9716 0.7564 -14.2248 -21.2169 -66.2655 36.4458 -150.0078 9.9452 -4.0034 -106.3533 0.4078 0.5155 4.9797 0.4201 6.1038 5.6869 -104.7998 -55.8379 92.9398 8.7240 8.1285 130.8534 -0.3647 -0.6570 1.9991 -54.0727 18.1747 92.9379 -2.1396 29.2880 -10.7238 -3.2034 -2.5910 -0.9645 3.2684 -10.0857 8.1626 -32.0779 -10.0085 87.9732 1.8979 44.2210 1.9589 -2.6725 -22.2357 1.8611 0.2570 -28.4826 -20.6441 
0.0000 93.1000 0.0000 69.8548 -20.5414 -6.8947 -70.9982 0.8779 88.0048 87.0069 66.2124 -0.0453 4.4176 15.7693 0.5538 -119.2715 27.0644 158.3047 176.5613 70.5600 -144.0776 0.4306 -14.3025 -20.8425 -65.9558 36.3554 -150.8068 9.9564 -3.9412 -106.3304 0.3371 0.8415 4.6935 0.2829 6.1777 5.9444 -104.9155 -56.3383 91.9484 7.8565 8.0236 131.7431 -0.5189 -0.9642 1.8089 -55.2249 18.0579 93.7080 -2.0573 29.1996 -9.9621 -4.3863 -4.3179 -0.9365 4.1636 -10.2017 6.5776 -31.9048 -9.9938 89.1218 1.8468 41.0881 3.2281 -2.3795 -22.0811 2.0744 0.4332 -26.7884 -20.5287 
0.0000 93.1000 0.0000 70.0707 -22.2980 -7.8634 -71.0141 -2.4554 88.0032 86.1466 66.2900 -0.4217 2.7755 15.9115 -0.4175 -119.3688 27.1415 158.2630 178.3168 70.6623 -145.1445 -0.3492 -14.0907 -20.8507 -65.2025 36.0690 -150.9370 9.9687 -3.8997 -106.0673 -0.1409 -1.9725 6.1905 -0.6544 6.1576 6.1606 -105.0941 -57.2947 90.8587 8.4871 7.9916 131.5911 1.9735 1.7623 4.1043 -57.3168 17.8846 97.1100 -1.0883 27.3890 -11.9050 -5.7503 -5.0760 0.9026 5.2399 -14.8306 8.9814 -32.6943 -9.9579 90.2750 2.2326 39.2626 4.1817 -2.5479 -21.6653 0.3596 1.6546 -26.0273 -20.3020 
0.0000 93.1000 0.0000 68.9731 -25.2346 -8.1313 -70.9968 0.6047 88.0178 84.8325 66.3771 1.0395 4.5684 15.9709 0.8273 -120.2076 26.6049 159.0367 -179.7879 71.1699 -147.4776 1.3607 -14.4118 -21.0297 -66.0324 36.2179 -149.9224 9.7903 -4.2017 -106.4124 -0.6214 0.1980 5.2782 0.7890 5.8259 5.7600 -104.8909 -58.3678 91.1649 9.1049 8.1844 131.9254 0.4406 -0.2221 3.3069 -57.9462 17.0227 98.8663 -1.7376 28.3084 -12.4903 -5.7163 -7.0435 -1.3918 7.0343 -16.7817 12.2201 -32.5648 -9.6390 92.3502 0.7658 35.9210 5.3777 -0.4901 -22.4208 1.2926 1.4669 -25.6337 -22.0575 
